# xmcd
#
# Track frame offsets:
#	150
#	14133
#	25850
#	40410
#	52325
#	65689
#	77824
#	89319
#	107489
#	120360
#	132336
#	142186
#	155140
#	168523
#	183570
#	195816
#	208330
#	225124
#
# Disc length: 3162 seconds
#
# Revision: 1
# Processed by: cddbd v1.5.2PL0 Copyright (c) Steve Scherf et al.
# Submitted via: audiograbber 1.83.01
#
DISCID=010c5812
DTITLE=Victor Wood - The Best Of
DYEAR=1900
DGENRE=
TTITLE0=I'm sorry my love
TTITLE1=A tear fell
TTITLE2=Fraulein
TTITLE3=Eternally
TTITLE4=Crying time
TTITLE5=Lonely teardrops
TTITLE6=I want you to love me
TTITLE7=For the good times
TTITLE8=Knock on wood
TTITLE9=Carmelita
TTITLE10=Little darling
TTITLE11=Mr. Lonely
TTITLE12=Take good care of her
TTITLE13=Sweet Caroline
TTITLE14=The voice of love
TTITLE15=Teenage senorita
TTITLE16=I went to your wedding
TTITLE17=Daddy cool
EXTD=
EXTT0=
EXTT1=
EXTT2=
EXTT3=
EXTT4=
EXTT5=
EXTT6=
EXTT7=
EXTT8=
EXTT9=
EXTT10=
EXTT11=
EXTT12=
EXTT13=
EXTT14=
EXTT15=
EXTT16=
EXTT17=
PLAYORDER=
